<?xml version="1.0" encoding="UTF-8"?>
<svg id="Layer_1" xmlns="http://www.w3.org/2000/svg" version="1.1" viewBox="0 0 505.53 505.53">
  <!-- Generator: Adobe Illustrator 29.8.1, SVG Export Plug-In . SVG Version: 2.1.1 Build 2)  -->
  <defs>
    <style>
      .st0 {
        fill: #fff;
      }

      .st1 {
        fill: #2b8fcd;
      }
    </style>
  </defs>
  <rect class="st1" width="505.53" height="505.53" rx="87.89" ry="87.89"/>
  <g>
    <path class="st0" d="M252.76,118.46c-74.18,0-134.3,60.12-134.3,134.31s60.12,134.31,134.3,134.31,134.31-60.13,134.31-134.31-60.13-134.31-134.31-134.31ZM262.9,366.32v-9.03c0-5.6-4.53-10.14-10.14-10.14s-10.13,4.53-10.13,10.14v9.03c-54.91-4.86-98.73-48.79-103.45-103.74h8.74c5.6,0,10.13-4.53,10.13-10.14s-4.53-10.14-10.13-10.14h-8.69c4.99-54.65,48.7-98.26,103.4-103.11v8.39c0,5.6,4.53,10.14,10.13,10.14s10.14-4.53,10.14-10.14v-8.39c54.7,4.85,98.4,48.45,103.4,103.11h-8.69c-5.6,0-10.14,4.53-10.14,10.14s4.53,10.14,10.14,10.14h8.74c-4.71,54.95-48.54,98.88-103.45,103.74Z"/>
    <path class="st0" d="M313.15,187.33l-60.04,62.91c-.11,0-.23-.02-.34-.02-.75,0-1.48.08-2.2.22l-50.25-37.97c-3.33-2.5-8.1-1.86-10.63,1.51-2.53,3.33-1.88,8.11,1.49,10.65l50.23,37.96c.48,5.85,5.38,10.45,11.35,10.45,6.3,0,11.4-5.11,11.4-11.4,0-.3-.02-.6-.04-.89l60.03-62.92c2.89-3.05,2.79-7.84-.26-10.75-3.03-2.91-7.84-2.77-10.75.26Z"/>
  </g>
</svg>