<?xml version="1.0" encoding="UTF-8"?>
<svg id="Layer_1" xmlns="http://www.w3.org/2000/svg" version="1.1" viewBox="0 0 505.53 505.53">
  <!-- Generator: Adobe Illustrator 29.8.1, SVG Export Plug-In . SVG Version: 2.1.1 Build 2)  -->
  <defs>
    <style>
      .st0 {
        fill: #fff;
      }

      .st1 {
        fill: #2b8fcd;
      }
    </style>
  </defs>
  <rect class="st1" width="505.53" height="505.53" rx="87.89" ry="87.89"/>
  <g>
    <polygon class="st0" points="390.96 252.77 372.72 276.64 380.47 305.67 354.46 320.7 350.48 350.48 320.7 354.46 305.67 380.47 276.64 372.72 252.77 390.96 228.89 372.72 199.87 380.47 184.83 354.46 155.05 350.48 151.07 320.7 125.06 305.67 132.81 276.64 114.57 252.77 132.81 228.89 125.06 199.87 151.08 184.83 155.05 155.05 184.83 151.07 199.87 125.06 228.89 132.81 252.77 114.57 276.64 132.81 305.67 125.06 320.7 151.07 350.49 155.05 354.46 184.83 380.47 199.87 372.72 228.89 390.96 252.77"/>
    <path class="st1" d="M196.77,246.7c-4.55-5.13-6.82-12.12-6.82-20.97v-.08c0-8.8,2.27-15.76,6.82-20.89,4.55-5.13,10.77-7.7,18.65-7.7s14.08,2.57,18.58,7.7c4.5,5.13,6.75,12.09,6.75,20.89v.08c0,8.85-2.25,15.84-6.75,20.97-4.5,5.13-10.69,7.7-18.58,7.7s-14.1-2.57-18.65-7.7ZM222.4,237.68c1.62-2.75,2.43-6.71,2.43-11.87v-.08c0-5.21-.81-9.18-2.43-11.91-1.62-2.73-3.94-4.09-6.98-4.09s-5.45,1.36-7.09,4.09c-1.64,2.73-2.46,6.7-2.46,11.91v.08c0,5.16.82,9.11,2.46,11.87,1.64,2.76,4.01,4.13,7.09,4.13s5.36-1.38,6.98-4.13ZM209.81,307.48l69.16-109.42h16.83l-69.08,109.42h-16.91ZM271.65,300.73c-4.52-5.16-6.79-12.13-6.79-20.93v-.08c0-8.85,2.26-15.82,6.79-20.93,4.52-5.11,10.73-7.66,18.62-7.66s14.08,2.55,18.58,7.66c4.5,5.11,6.75,12.08,6.75,20.93v.08c0,8.8-2.25,15.77-6.75,20.93-4.5,5.16-10.69,7.73-18.58,7.73s-14.09-2.58-18.62-7.73ZM297.24,291.74c1.62-2.75,2.43-6.74,2.43-11.94v-.08c0-5.16-.81-9.1-2.43-11.83-1.62-2.73-3.94-4.09-6.98-4.09s-5.45,1.36-7.09,4.09c-1.64,2.73-2.46,6.67-2.46,11.83v.08c0,5.21.82,9.19,2.46,11.94,1.64,2.76,4.01,4.13,7.09,4.13s5.36-1.38,6.98-4.13Z"/>
  </g>
</svg>