<?xml version="1.0" encoding="UTF-8"?>
<svg id="Layer_1" xmlns="http://www.w3.org/2000/svg" version="1.1" viewBox="0 0 505.53 505.53">
  <!-- Generator: Adobe Illustrator 29.8.1, SVG Export Plug-In . SVG Version: 2.1.1 Build 2)  -->
  <defs>
    <style>
      .st0 {
        fill: #fff;
      }

      .st1 {
        fill: #2b8fcd;
      }
    </style>
  </defs>
  <rect class="st1" y="0" width="505.53" height="505.53" rx="87.89" ry="87.89"/>
  <g>
    <path class="st0" d="M184.15,222.34c-34.66,0-62.86,28.2-62.86,62.86v95.97c0,3.26,2.64,5.91,5.91,5.91h113.9c3.26,0,5.91-2.64,5.91-5.91v-95.97c0-34.66-28.2-62.86-62.86-62.86ZM147.21,375.26v-15.97c0-20.37,16.57-36.94,36.94-36.94s36.94,16.57,36.94,36.94v15.97h-73.88ZM235.19,375.26h-2.3v-15.97c0-26.88-21.87-48.75-48.75-48.75s-48.75,21.87-48.75,48.75v15.97h-2.3v-90.07c0-28.15,22.9-51.05,51.05-51.05s51.05,22.9,51.05,51.05v90.07Z"/>
    <path class="st0" d="M321.39,194.33c-34.66,0-62.86,28.2-62.86,62.86v123.98c0,3.26,2.64,5.91,5.91,5.91h113.9c3.26,0,5.91-2.64,5.91-5.91v-123.98c0-34.66-28.2-62.86-62.86-62.86ZM286.64,375.26v-54.11c0-19.16,15.59-34.74,34.74-34.74s34.74,15.58,34.74,34.74v54.11h-69.48ZM372.43,375.26h-4.49v-54.11c0-25.67-20.88-46.55-46.55-46.55s-46.55,20.88-46.55,46.55v54.11h-4.49v-118.08c0-28.15,22.9-51.05,51.05-51.05s51.05,22.9,51.05,51.05v118.08Z"/>
    <path class="st0" d="M184.15,217.6c21.72,0,39.39-17.67,39.39-39.39s-17.67-39.39-39.39-39.39-39.39,17.67-39.39,39.39,17.67,39.39,39.39,39.39ZM184.15,150.63c15.21,0,27.58,12.37,27.58,27.58s-12.37,27.58-27.58,27.58-27.58-12.37-27.58-27.58,12.37-27.58,27.58-27.58Z"/>
    <path class="st0" d="M184.15,244.62c-17.54,0-31.81,14.27-31.81,31.81s14.27,31.81,31.81,31.81,31.81-14.27,31.81-31.81-14.27-31.81-31.81-31.81ZM184.15,296.43c-11.03,0-20-8.97-20-20s8.97-20,20-20,20,8.97,20,20-8.97,20-20,20Z"/>
    <path class="st0" d="M321.39,189.46c21.72,0,39.39-17.67,39.39-39.39s-17.67-39.39-39.39-39.39-39.39,17.67-39.39,39.39,17.67,39.39,39.39,39.39ZM321.39,122.49c15.21,0,27.58,12.37,27.58,27.58s-12.37,27.58-27.58,27.58-27.58-12.37-27.58-27.58,12.37-27.58,27.58-27.58Z"/>
    <path class="st0" d="M321.39,212.44c-16.31,0-29.58,13.27-29.58,29.58s13.27,29.58,29.58,29.58,29.58-13.27,29.58-29.58-13.27-29.58-29.58-29.58ZM321.39,259.8c-9.8,0-17.77-7.97-17.77-17.77s7.97-17.77,17.77-17.77,17.77,7.97,17.77,17.77-7.97,17.77-17.77,17.77Z"/>
  </g>
</svg>